<svg xmlns="http://www.w3.org/2000/svg" viewBox="0 0 32 32" fill="none">
  <rect width="32" height="32" rx="6" fill="#1B4332"/>
  <path d="M16 28 L16 14" stroke="#52B788" stroke-width="2.2" stroke-linecap="round"/>
  <path d="M16 22 Q12 19 8 20" stroke="#52B788" stroke-width="1.4" stroke-linecap="round"/>
  <path d="M16 22 Q20 19 24 20" stroke="#52B788" stroke-width="1.4" stroke-linecap="round"/>
  <path d="M16 18 Q11 15 7 15" stroke="#52B788" stroke-width="1.2" stroke-linecap="round"/>
  <path d="M16 18 Q21 15 25 15" stroke="#52B788" stroke-width="1.2" stroke-linecap="round"/>
  <path d="M16 14 Q13 11 10 10" stroke="#52B788" stroke-width="1" stroke-linecap="round"/>
  <path d="M16 14 Q19 11 22 10" stroke="#52B788" stroke-width="1" stroke-linecap="round"/>
  <ellipse cx="8" cy="18" rx="4" ry="3.2" fill="#52B788" opacity="0.25"/>
  <ellipse cx="24" cy="18" rx="4" ry="3.2" fill="#52B788" opacity="0.25"/>
  <ellipse cx="7" cy="13" rx="4.5" ry="3.5" fill="#52B788" opacity="0.3"/>
  <ellipse cx="25" cy="13" rx="4.5" ry="3.5" fill="#52B788" opacity="0.3"/>
  <ellipse cx="10" cy="8" rx="4" ry="3.2" fill="#52B788" opacity="0.35"/>
  <ellipse cx="22" cy="8" rx="4" ry="3.2" fill="#52B788" opacity="0.35"/>
  <ellipse cx="16" cy="5" rx="5" ry="3.5" fill="#52B788" opacity="0.4"/>
  <path d="M16 28 Q13 29 10 28.5" stroke="#52B788" stroke-width="1" stroke-linecap="round"/>
  <path d="M16 28 Q19 29 22 28.5" stroke="#52B788" stroke-width="1" stroke-linecap="round"/>
</svg>
